<?xml version="1.0" standalone="no"?>
<!DOCTYPE svg PUBLIC "-//W3C//DTD SVG 20010904//EN"
 "http://www.w3.org/TR/2001/REC-SVG-20010904/DTD/svg10.dtd">
<svg version="1.0" xmlns="http://www.w3.org/2000/svg"
 width="1280.000000pt" height="1280.000000pt" viewBox="0 0 1280.000000 1280.000000"
 preserveAspectRatio="xMidYMid meet">
<metadata>
Created by potrace 1.14, written by Peter Selinger 2001-2017
</metadata>
<g transform="translate(0.000000,1280.000000) scale(0.100000,-0.100000)"
fill="#000000" stroke="none">
<path d="M5565 9191 c-54 -23 -56 -29 -72 -343 -8 -161 -15 -491 -16 -733 -2
-524 2 -563 80 -678 73 -108 139 -144 214 -118 29 10 35 8 66 -19 41 -36 103
-41 161 -11 84 43 206 200 297 381 65 131 79 182 79 285 0 209 -101 404 -244
473 -53 25 -149 42 -242 42 l-68 0 5 43 c2 23 7 147 10 275 5 204 4 237 -11
268 -24 50 -98 112 -157 129 -56 17 -73 18 -102 6z m473 -1043 c36 -45 16
-143 -59 -295 -33 -68 -67 -120 -101 -155 l-52 -53 -8 60 c-11 79 1 376 16
406 6 13 23 29 36 36 33 17 154 17 168 1z"/>
<path d="M6593 9135 c-27 -19 -40 -81 -48 -230 -15 -294 -74 -957 -110 -1233
-34 -260 -13 -310 154 -361 84 -26 122 -26 150 -3 20 16 24 40 46 287 14 149
28 290 31 315 l6 45 37 -105 c71 -197 160 -384 250 -521 117 -177 196 -205
342 -120 57 33 64 40 64 68 l0 31 39 -35 c76 -69 183 -95 221 -53 9 10 26 60
36 110 18 90 59 257 79 333 l11 37 99 0 99 0 -5 -82 c-6 -104 -22 -294 -30
-373 -6 -56 -5 -62 21 -88 46 -46 139 -96 208 -113 56 -14 69 -14 93 -3 l29
14 8 165 c4 91 9 433 10 760 2 625 -2 711 -44 845 -32 104 -108 173 -207 190
-32 5 -49 3 -67 -9 -24 -16 -25 -20 -19 -86 l7 -70 -32 0 c-96 0 -148 -80
-295 -455 -146 -369 -122 -327 -192 -346 -34 -8 -76 -26 -94 -39 -32 -23 -32
-24 -26 -78 4 -30 18 -88 31 -128 23 -70 24 -77 11 -128 -21 -81 -49 -265 -42
-281 3 -8 4 -15 2 -15 -9 0 -153 230 -198 315 -42 81 -191 411 -204 455 -3 9
15 37 42 65 141 150 317 513 317 656 0 66 -29 124 -101 201 -38 41 -50 48 -82
48 -21 0 -43 -7 -50 -15 -7 -8 -35 -70 -61 -138 -69 -171 -160 -350 -220 -430
-27 -38 -52 -67 -53 -65 -2 1 4 111 12 243 9 132 12 253 8 268 -8 32 -94 103
-172 141 -61 30 -81 32 -111 11z m1523 -1102 c-4 -10 -17 -12 -48 -7 -24 4
-46 10 -51 14 -9 8 24 119 66 220 l32 75 3 -145 c1 -79 0 -150 -2 -157z"/>
<path d="M4860 9037 c-47 -24 -55 -58 -50 -207 2 -74 5 -216 5 -315 l0 -179
-79 -24 c-55 -17 -81 -21 -89 -13 -6 6 -14 105 -19 243 -5 128 -13 249 -18
269 -13 46 -62 108 -135 170 -51 44 -62 49 -105 49 -41 0 -52 -4 -71 -27 -21
-27 -21 -34 -15 -178 3 -82 13 -247 22 -366 10 -119 14 -228 10 -242 -4 -18
-18 -30 -52 -43 -90 -34 -96 -84 -25 -199 28 -44 65 -99 83 -122 42 -55 44
-61 52 -175 8 -115 30 -253 53 -323 32 -103 90 -147 221 -170 121 -21 148 -2
130 95 -5 25 -17 110 -28 190 -11 80 -31 208 -45 285 -28 157 -31 208 -12 222
18 15 107 43 133 43 31 0 41 -22 48 -110 12 -141 38 -355 51 -421 22 -103 43
-145 96 -193 47 -42 163 -99 226 -112 41 -8 81 11 89 41 6 25 2 45 -50 235
-69 257 -119 684 -130 1133 -4 161 -7 182 -29 230 -35 76 -104 163 -156 197
-49 33 -73 36 -111 17z"/>
<path d="M3438 8771 c-48 -14 -90 -29 -93 -33 -4 -4 7 -32 25 -63 18 -31 31
-57 29 -59 -2 -1 -19 -9 -38 -16 -74 -30 -96 -157 -87 -515 4 -132 9 -266 13
-298 6 -57 5 -58 -32 -90 -65 -54 -95 -88 -101 -113 -7 -28 37 -104 102 -174
38 -41 44 -54 59 -135 17 -93 39 -180 57 -227 32 -85 261 -147 335 -92 24 19
28 28 27 70 -1 27 -13 111 -28 187 -14 76 -29 169 -32 206 l-7 67 87 34 c47
18 89 31 92 28 9 -9 75 -196 119 -338 49 -158 54 -164 183 -181 98 -13 183 1
218 36 28 28 39 -9 -105 359 -412 1052 -563 1342 -711 1369 -14 3 -64 -7 -112
-22z m242 -771 c28 -68 49 -129 46 -135 -2 -6 -24 -16 -49 -21 l-45 -11 -6 31
c-13 62 -19 281 -8 271 6 -5 33 -66 62 -135z"/>
<path d="M9401 8588 c-53 -20 -83 -85 -82 -181 0 -93 18 -138 65 -169 20 -13
36 -27 36 -32 0 -29 -273 -763 -385 -1034 -39 -94 -46 -120 -40 -150 16 -89
129 -245 187 -258 26 -6 58 15 71 47 5 11 8 10 17 -4 24 -37 74 -89 100 -102
77 -40 155 -25 275 53 188 121 295 305 326 559 22 183 -13 306 -115 408 -51
51 -124 85 -182 85 -13 0 -24 2 -24 4 0 8 71 252 91 314 l21 63 42 -6 c22 -4
96 -25 164 -48 117 -38 123 -39 141 -23 46 41 66 189 39 279 -18 61 -72 112
-138 131 -171 50 -277 68 -425 72 -105 3 -160 0 -184 -8z m202 -1100 c60 -23
73 -105 30 -196 -45 -95 -184 -215 -229 -198 -30 11 -20 42 121 383 15 34 15
34 78 11z"/>
<path d="M2325 8426 c-133 -30 -255 -98 -348 -193 -54 -56 -70 -96 -53 -136 6
-15 45 -56 86 -90 41 -34 84 -77 96 -94 12 -18 35 -87 52 -155 63 -250 145
-493 290 -858 86 -219 95 -236 135 -260 28 -17 47 -20 147 -17 117 3 152 13
169 46 14 25 11 33 -113 343 -58 146 -106 271 -106 277 0 8 11 6 32 -5 64 -33
147 -3 183 66 82 161 125 509 81 654 -31 104 -75 177 -150 251 -142 140 -339
208 -501 171z m269 -352 c9 -8 21 -24 26 -35 18 -33 23 -145 11 -225 -13 -77
-62 -204 -80 -204 -14 0 -37 69 -70 210 -16 69 -37 142 -45 162 -23 54 -20 65
22 87 45 25 115 27 136 5z"/>
<path d="M10857 8092 c-10 -10 -17 -30 -17 -44 0 -14 -3 -39 -6 -56 -6 -30 -7
-31 -54 -25 -39 4 -55 1 -82 -15 -71 -44 -179 -172 -379 -449 -68 -92 -127
-171 -133 -175 -6 -4 -37 -8 -68 -8 -32 0 -75 -7 -97 -16 -34 -13 -40 -21 -46
-53 -8 -50 -9 -186 -1 -199 3 -5 -14 -48 -38 -93 -24 -46 -59 -119 -76 -162
-30 -73 -32 -82 -20 -120 23 -78 93 -172 152 -203 37 -19 92 -18 110 4 9 9 39
64 68 122 46 91 132 249 158 288 7 10 27 8 97 -13 49 -14 91 -27 93 -30 5 -5
-55 -187 -115 -352 -33 -88 -44 -129 -39 -149 4 -15 37 -58 73 -95 86 -90 178
-135 216 -107 18 13 85 229 237 759 136 472 210 804 210 941 0 105 -57 206
-141 249 -48 24 -81 24 -102 1z m-157 -670 c-4 -16 -22 -81 -40 -145 -21 -76
-37 -117 -46 -117 -17 0 -84 32 -84 40 0 21 160 250 174 250 3 0 1 -13 -4 -28z"/>
<path d="M1184 7896 c-80 -37 -84 -70 -18 -137 45 -46 46 -47 25 -59 -12 -6
-31 -26 -41 -43 -39 -63 -21 -188 76 -532 31 -110 63 -225 72 -257 l16 -56
-43 -56 c-27 -35 -45 -69 -48 -94 -5 -36 -2 -41 57 -96 35 -32 77 -65 94 -73
26 -12 44 -42 106 -166 74 -149 76 -152 125 -177 42 -21 64 -25 140 -25 100 0
147 18 175 67 13 25 12 32 -19 100 -64 142 -161 368 -161 377 0 5 34 34 77 64
l76 56 17 -22 c34 -44 138 -205 195 -300 32 -54 66 -102 76 -107 27 -15 148
-12 214 5 66 17 128 61 133 93 5 36 -642 933 -853 1182 -104 122 -219 228
-279 256 -68 32 -144 32 -212 0z m435 -706 c45 -60 84 -116 87 -124 6 -16 -69
-61 -85 -52 -14 9 -91 244 -91 278 0 17 11 4 89 -102z"/>
<path d="M11521 7652 l-31 -30 0 -119 c0 -138 13 -109 -176 -386 -124 -181
-228 -356 -389 -652 -88 -163 -109 -210 -113 -251 -5 -56 -15 -40 138 -210 34
-38 74 -50 102 -32 11 7 56 81 100 163 43 83 111 208 150 279 l71 129 20 -53
c17 -46 25 -55 66 -73 45 -20 48 -20 109 -4 151 40 388 180 485 288 68 75 121
174 143 265 31 134 0 332 -71 445 -94 149 -285 253 -486 266 -88 6 -88 6 -118
-25z m318 -455 c25 -13 53 -35 64 -50 18 -23 19 -31 9 -65 -23 -76 -176 -196
-292 -228 -30 -9 -63 -18 -72 -20 -40 -11 -5 55 106 201 39 52 83 115 98 140
15 25 31 45 35 45 4 0 28 -11 52 -23z"/>
<path d="M466 7460 c-138 -88 -320 -246 -396 -342 -36 -44 -38 -52 -45 -143
-7 -93 -6 -98 17 -122 70 -76 181 -100 245 -55 18 13 47 44 64 68 37 54 42 52
101 -50 50 -85 269 -426 472 -734 165 -250 182 -267 289 -283 89 -14 201 1
233 32 50 47 38 70 -172 352 -202 269 -438 630 -587 898 l-37 67 52 43 c94 76
128 112 128 136 0 62 -140 152 -252 160 -58 4 -67 2 -112 -27z"/>
<path d="M6052 6750 c-179 -11 -369 -33 -588 -70 -246 -42 -525 -105 -573
-129 -53 -28 -137 -48 -231 -57 -69 -6 -278 -56 -562 -134 l-118 -32 0 -1594
0 -1593 73 -21 c39 -12 86 -25 102 -30 146 -44 481 -124 569 -136 78 -10 133
-24 190 -48 152 -65 652 -162 1011 -197 170 -17 547 -14 750 6 198 19 447 59
677 110 133 29 182 45 264 85 99 49 102 50 193 50 62 0 115 6 159 19 152 45
562 151 581 151 l21 0 0 1579 0 1578 -57 17 c-397 116 -599 167 -666 170 -61
3 -94 12 -188 51 -364 151 -1097 253 -1607 225z"/>
<path d="M3685 6229 c-33 -10 -96 -26 -140 -35 -322 -64 -604 -157 -1010 -332
-22 -9 -121 -70 -220 -136 -198 -131 -285 -176 -450 -231 -252 -84 -642 -329
-789 -497 -76 -86 -73 -120 12 -132 58 -8 162 -42 188 -61 18 -14 17 -14 -9
-15 -15 0 -60 -7 -98 -16 -216 -49 -174 -207 72 -269 238 -60 371 -143 939
-585 354 -276 565 -388 765 -406 67 -6 86 -13 168 -61 159 -92 224 -123 309
-142 46 -11 113 -31 151 -45 37 -14 96 -37 132 -51 l65 -24 0 1529 c0 1218 -3
1530 -12 1529 -7 0 -40 -9 -73 -20z m-81 -185 c10 -4 16 -18 16 -38 0 -25 -6
-35 -25 -44 -32 -15 -85 -16 -85 -2 0 6 -4 10 -8 10 -5 0 -7 -34 -4 -77 4 -66
2 -78 -13 -90 -21 -15 -95 -18 -95 -3 0 5 -17 21 -37 35 l-38 25 45 -6 c37 -5
49 -2 68 16 31 29 29 80 -4 120 -15 17 -25 32 -23 34 18 14 177 30 203 20z
m-194 -121 c0 -31 -27 -42 -82 -33 -27 4 -48 3 -48 -1 0 -4 -12 -4 -26 0 -18
5 -30 18 -39 43 l-12 37 66 20 c106 31 104 31 123 -8 10 -20 18 -46 18 -58z
m-233 -43 c-5 -85 -22 -126 -39 -96 -5 9 -6 22 -2 29 4 6 4 9 0 5 -7 -6 -83
69 -86 86 -1 8 100 53 124 55 5 1 6 -35 3 -79z m443 28 c0 -5 -4 -7 -9 -4 -4
3 -8 -31 -7 -75 1 -61 -3 -82 -14 -89 -22 -14 -81 -11 -110 5 -24 14 -24 14
-3 15 11 0 33 14 48 32 22 26 26 38 21 69 -3 21 -8 43 -11 51 -4 10 5 12 40
10 25 -2 45 -8 45 -14z m-565 -55 c42 -58 65 -144 45 -168 -28 -34 -148 13
-176 68 -9 17 -27 43 -40 57 l-24 26 73 32 c39 17 75 31 79 32 4 0 23 -21 43
-47z m253 -28 c61 -55 98 -123 78 -143 -7 -7 -31 -16 -54 -19 -34 -5 -41 -2
-47 16 -3 11 -26 35 -50 52 l-43 31 14 34 c8 18 14 43 14 54 0 33 34 24 88
-25z m-427 -49 c26 -57 24 -86 -10 -126 -23 -29 -32 -33 -49 -25 -22 11 -135
115 -130 120 16 16 154 82 161 78 5 -3 18 -24 28 -47z m314 -56 c-3 -6 1 -7 9
-4 11 4 22 -8 37 -42 l23 -47 -23 -18 c-33 -27 -110 -25 -164 4 l-42 22 42 3
c48 4 73 29 73 73 0 14 3 29 6 32 10 9 46 -12 39 -23z m289 -10 c19 -17 45
-51 57 -76 19 -41 20 -47 7 -61 -9 -8 -34 -17 -57 -20 -35 -5 -46 -2 -69 19
-15 14 -38 32 -51 41 l-24 16 36 14 c41 17 58 44 50 75 -8 31 10 27 51 -8z
m-804 12 c0 -5 27 -38 60 -73 51 -55 60 -69 60 -101 0 -31 -4 -38 -19 -38 -10
0 -26 12 -35 26 -10 14 -42 55 -73 91 l-56 66 24 18 c26 20 39 24 39 11z m940
-62 c0 -49 -15 -67 -27 -32 -3 9 -15 29 -25 44 l-18 27 27 4 c16 2 31 5 36 6
4 0 7 -21 7 -49z m-610 -32 c31 -43 38 -86 18 -106 -18 -18 -89 -14 -124 7
-42 26 -49 55 -18 76 14 9 32 31 41 50 14 29 19 32 35 24 10 -6 32 -28 48 -51z
m-255 -213 c113 -167 165 -266 184 -350 6 -27 15 -113 21 -190 11 -149 21
-223 46 -348 8 -43 12 -91 9 -108 -9 -40 -58 -95 -107 -120 l-40 -20 -51 39
c-82 62 -104 74 -139 74 l-33 0 54 56 c30 31 65 74 79 94 13 21 27 36 31 34 4
-3 7 3 8 12 0 9 12 44 26 77 67 158 56 312 -36 490 -53 102 -210 264 -302 311
-58 29 -60 31 -60 70 0 38 2 40 62 68 34 16 67 40 73 52 12 21 13 20 39 -30
15 -28 76 -123 136 -211z m596 184 c31 -22 62 -81 53 -103 -11 -27 -71 -40
-130 -27 -48 11 -104 48 -104 69 0 5 18 12 41 15 42 5 89 40 89 64 0 15 6 13
51 -18z m269 -94 l0 -75 -40 0 c-24 0 -40 5 -40 12 0 6 -11 26 -25 43 l-24 33
33 6 c18 4 43 17 56 31 13 14 27 25 32 25 4 0 8 -34 8 -75z m-490 30 c17 -20
16 -151 -1 -171 -26 -31 -65 -16 -118 44 -28 31 -45 58 -38 59 79 12 88 15
100 41 8 15 12 35 9 45 -3 16 -1 17 15 8 11 -5 26 -17 33 -26z m-816 -9 c19
-8 37 -23 40 -34 11 -34 79 -88 175 -137 50 -26 96 -55 100 -64 5 -9 45 -67
90 -129 44 -62 85 -129 92 -149 20 -61 6 -151 -35 -229 -72 -137 -258 -353
-321 -374 -18 -6 -39 -18 -46 -26 -6 -8 -43 -31 -81 -51 -81 -42 -107 -79 -89
-126 6 -15 18 -27 27 -27 23 0 169 70 240 115 49 31 55 33 35 12 -19 -21 -23
-33 -18 -62 5 -33 4 -35 -22 -35 -16 0 -33 -6 -39 -13 -17 -20 -50 -173 -44
-203 5 -26 4 -26 -39 -19 -123 19 -233 59 -311 113 -24 17 -86 72 -139 124
-147 143 -255 208 -541 327 -247 102 -302 129 -290 144 9 11 32 8 121 -15 135
-33 211 -44 211 -30 0 21 -113 53 -243 68 -32 3 -57 8 -55 9 2 2 64 11 138 20
74 9 139 20 144 25 13 13 -19 56 -62 84 -20 12 -80 40 -132 60 -52 21 -97 40
-99 42 -2 2 13 19 35 38 l38 33 29 -21 c37 -27 103 -28 142 -1 17 11 34 18 38
17 4 -1 1 10 -7 26 -15 28 -53 52 -83 52 -42 0 282 197 492 300 261 127 425
171 509 136z m596 -90 c0 -44 -1 -46 -27 -46 -32 1 -51 14 -76 52 -21 34 -21
35 3 41 11 3 24 16 29 30 l10 26 31 -29 c25 -23 30 -36 30 -74z m580 34 c22
-43 26 -100 10 -131 -8 -14 -21 -19 -51 -19 -35 0 -47 7 -90 49 -27 27 -49 50
-49 52 0 2 16 5 35 6 53 2 89 24 99 60 12 38 20 35 46 -17z m-243 -26 c38 -17
43 -23 45 -54 6 -106 -13 -140 -81 -140 -42 0 -50 5 -74 42 -16 26 -16 27 2
33 25 8 51 64 51 110 0 20 3 35 8 33 4 -2 26 -13 49 -24z m-262 -55 c10 -18
15 -48 13 -77 -3 -43 -5 -47 -30 -50 -38 -5 -65 13 -87 57 l-20 38 25 -5 c28
-5 52 12 65 45 11 30 15 29 34 -8z m635 -6 c0 -13 -3 -14 -12 -5 -7 7 -18 12
-26 12 -9 0 -5 -11 13 -31 23 -28 26 -39 23 -98 l-3 -66 -40 -3 c-47 -3 -91
17 -89 41 1 9 -2 14 -7 12 -4 -3 -12 2 -17 12 -9 14 -4 19 26 30 28 9 39 9 52
0 13 -10 13 -10 2 5 -11 14 -11 21 3 42 10 14 15 35 12 46 -4 17 0 20 29 20
25 0 34 -4 34 -17z m-208 -146 c12 -40 -2 -94 -22 -82 -6 4 -9 1 -8 -7 2 -9
-12 -14 -49 -16 -45 -3 -56 1 -78 22 -33 33 -32 53 4 61 48 10 76 49 74 101
l-2 45 35 -43 c19 -24 39 -60 46 -81z m-309 33 c31 -44 47 -123 27 -135 -22
-13 -93 -6 -132 12 -22 11 -43 31 -52 50 l-15 32 28 -5 c41 -8 69 10 82 55 14
46 24 44 62 -9z m420 -110 c31 0 37 -98 7 -125 -39 -35 -161 -17 -146 22 3 8
1 11 -4 8 -6 -3 -10 0 -10 8 0 8 14 20 30 27 36 15 52 41 52 84 l0 32 28 -28
c16 -15 35 -28 43 -28z m-309 7 c10 -26 27 -49 46 -60 35 -21 40 -59 15 -107
-19 -36 -47 -52 -91 -52 -40 0 -74 20 -121 71 -49 54 -42 14 8 -43 45 -51 85
-76 121 -76 13 0 28 -8 34 -17 15 -26 17 -108 4 -164 -12 -47 -13 -49 -47 -49
-28 0 -43 8 -69 35 -38 41 -74 146 -74 218 0 27 -12 78 -30 124 -36 92 -35 91
-10 68 21 -19 95 -31 134 -21 31 8 48 37 48 82 0 46 12 43 32 -9z m406 -46 c0
-16 -6 -32 -12 -35 -10 -5 -10 -7 0 -12 8 -4 12 -30 12 -80 l0 -75 -35 -15
c-50 -21 -64 -18 -101 22 -35 37 -43 56 -21 53 42 -5 71 4 99 31 26 27 30 36
25 68 -3 20 -8 45 -12 55 -6 13 -2 17 19 17 22 0 26 -4 26 -29z m-271 -66 c7
-20 26 -45 42 -57 24 -18 29 -29 29 -65 0 -50 -22 -111 -44 -119 -19 -7 -44 7
-100 55 l-44 39 24 13 c38 20 66 73 66 124 0 54 9 58 27 10z m217 -192 c40 4
52 3 47 -6 -4 -7 -9 -20 -10 -30 -4 -26 -39 -91 -57 -106 -22 -18 -71 -7 -113
25 -30 23 -33 28 -20 43 18 20 37 76 37 107 0 22 1 21 31 -8 28 -29 34 -30 85
-25z m-220 -121 c9 -33 -5 -114 -23 -134 -20 -22 -71 -23 -102 -2 l-23 16 24
12 c29 14 47 65 47 134 l1 53 35 -28 c20 -15 38 -38 41 -51z m68 -12 c17 -22
33 -40 36 -40 4 0 19 -11 34 -25 22 -20 26 -32 26 -79 0 -51 -2 -56 -25 -62
-30 -7 -124 3 -145 16 -12 7 -11 13 9 34 28 29 41 138 22 174 -21 39 11 25 43
-18z m206 -25 c0 -71 -7 -77 -65 -55 l-26 10 29 25 c16 13 35 38 42 55 7 16
14 30 16 30 2 0 4 -29 4 -65z m-433 -97 c-3 -11 -3 -17 0 -14 3 3 19 -6 35
-19 16 -14 42 -25 56 -25 18 0 38 -12 60 -35 38 -42 42 -84 12 -132 -24 -41
-65 -44 -125 -10 -38 22 -40 25 -48 87 -4 35 -18 89 -30 120 l-23 56 34 -4
c28 -4 33 -8 29 -24z m404 -10 l26 -3 -12 -57 c-6 -32 -14 -60 -17 -63 -3 -4
-22 -3 -42 0 l-36 7 20 26 c17 21 19 34 14 71 -6 39 -5 44 7 34 8 -6 26 -13
40 -15z m-103 -146 c6 -14 12 -34 12 -44 0 -29 -29 -80 -42 -72 -7 4 -8 3 -4
-5 10 -16 -52 -41 -87 -34 -25 5 -39 23 -17 23 27 0 65 127 47 157 -3 4 14 7
37 5 33 -3 44 -9 54 -30z m132 -35 c0 -11 -7 -43 -16 -73 -16 -57 -26 -63 -81
-48 -20 6 -21 7 -6 42 8 19 13 49 11 66 -3 31 -3 31 44 31 40 0 48 -3 48 -18z
m-380 -92 c16 -8 39 -15 50 -15 17 0 20 -4 15 -22 -13 -42 -34 -50 -114 -44
-41 3 -78 11 -82 18 -4 7 2 24 15 39 12 14 28 40 35 58 l13 31 20 -25 c11 -14
33 -32 48 -40z m168 -63 c24 -2 48 0 54 6 7 7 24 4 55 -11 42 -21 46 -21 74
-5 l29 17 0 -102 0 -102 -23 28 c-12 15 -42 40 -65 56 -26 17 -39 31 -33 35
14 9 14 56 1 56 -6 0 -18 -13 -27 -28 -16 -28 -16 -28 -67 -16 -28 7 -64 16
-80 19 -26 6 -27 7 -12 24 9 10 16 23 16 30 0 9 6 11 18 5 9 -4 37 -9 60 -12z
m-313 -12 c3 -5 -1 -10 -10 -10 -9 0 -13 5 -10 10 3 6 8 10 10 10 2 0 7 -4 10
-10z m145 -91 c148 -14 230 -40 280 -88 37 -35 40 -42 40 -94 0 -106 -71 -243
-147 -285 -149 -82 -420 7 -502 165 -11 21 -6 20 71 -14 137 -60 299 -112 371
-119 74 -8 89 4 37 31 -17 9 -28 20 -25 25 4 6 5 10 3 10 -10 0 -358 121 -395
137 -38 16 -41 20 -28 37 14 18 18 17 112 -23 149 -62 241 -91 313 -98 60 -6
64 -5 51 10 -7 10 -18 17 -24 17 -6 0 -20 9 -31 19 -12 11 -88 43 -171 71
-129 45 -199 73 -214 86 -2 2 3 10 11 18 13 13 26 10 104 -19 84 -31 234 -69
242 -60 16 16 -89 69 -227 115 -73 24 -107 40 -109 52 -5 27 33 28 238 7z
m-552 -186 c20 -26 51 -51 82 -65 48 -22 64 -38 38 -38 -7 0 2 -15 20 -32 33
-35 62 -94 62 -128 0 -17 -6 -20 -43 -20 -53 0 -88 29 -67 55 8 10 11 32 8 60
-4 31 -2 43 6 38 6 -3 7 -2 3 3 -5 5 -12 9 -15 10 -4 0 -27 19 -50 42 -31 30
-49 41 -62 37 -10 -3 -22 -1 -25 6 -8 12 -83 48 -102 49 -7 0 -13 -4 -13 -10
0 -5 6 -10 13 -10 8 0 31 -15 52 -33 35 -30 37 -35 28 -62 -9 -28 -13 -30 -64
-30 -32 0 -53 4 -52 10 1 6 -7 12 -18 12 -10 1 -19 -4 -19 -12 0 -23 42 -45
87 -45 37 0 44 -4 58 -31 17 -32 67 -59 109 -59 15 0 30 -8 36 -20 6 -11 7
-20 3 -20 -4 0 -71 31 -148 68 -77 38 -156 75 -175 84 l-35 15 32 17 c29 15
83 79 83 98 0 5 -13 8 -30 8 -27 0 -29 2 -19 23 9 20 16 22 98 22 l88 0 31
-42z m37 -113 c7 -14 16 -42 20 -63 l7 -37 -43 0 c-29 0 -50 6 -65 21 l-22 20
24 24 c17 17 24 35 24 61 0 37 0 37 21 18 12 -10 27 -30 34 -44z m893 -97 c-2
-42 -3 -43 -35 -43 l-33 0 27 55 c30 61 44 57 41 -12z m-612 -121 c-45 -4
-118 8 -98 15 7 3 17 16 22 28 l9 24 54 -32 54 -32 -41 -3z m540 13 c7 -19 14
-44 14 -56 0 -19 -2 -20 -17 -8 -13 11 -17 11 -20 2 -7 -20 -38 -15 -61 10
l-22 23 42 32 c24 17 44 31 46 32 2 0 10 -16 18 -35z m72 -45 c-1 -48 -6 -70
-14 -70 -7 0 -16 5 -19 10 -3 6 -2 10 3 10 18 0 22 50 8 85 -14 33 -14 35 5
35 18 0 20 -6 17 -70z m-180 -33 c12 -24 23 -54 24 -68 3 -22 -1 -24 -39 -27
-35 -3 -46 1 -64 22 -27 31 -61 38 -38 9 13 -17 12 -17 -6 -2 -11 8 -46 31
-77 49 -32 19 -58 37 -58 40 0 3 35 4 78 2 43 -2 94 1 113 6 19 6 37 11 40 11
3 1 15 -18 27 -42z m129 -59 c29 -32 40 -58 44 -98 l4 -35 -44 1 c-36 1 -48 6
-64 28 -14 19 -25 25 -41 21 -15 -4 -14 -2 6 10 29 16 45 54 34 80 -9 24 37
18 61 -7z"/>
<path d="M2476 5561 c-3 -5 51 -45 120 -91 116 -75 128 -86 148 -133 13 -28
26 -46 29 -40 11 17 -21 108 -45 130 -42 37 -245 146 -252 134z"/>
<path d="M3093 5475 c0 -8 4 -12 9 -9 5 3 6 10 3 15 -9 13 -12 11 -12 -6z"/>
<path d="M1855 5371 c-48 -12 -70 -27 -119 -82 -42 -47 -55 -69 -40 -69 3 0
31 24 63 54 31 30 69 60 84 65 34 13 94 13 122 1 14 -6 8 -7 -20 -4 -80 11
-166 -31 -200 -97 -8 -15 -15 -55 -15 -88 0 -53 3 -63 30 -90 34 -34 81 -47
132 -36 74 16 147 72 163 125 19 60 -4 138 -46 161 -11 6 -18 13 -15 17 4 3
19 -7 35 -22 19 -18 31 -24 36 -16 26 41 -129 102 -210 81z m123 -122 c59 -57
54 -92 -17 -129 -118 -60 -212 -19 -182 79 8 30 19 42 42 50 23 8 29 8 26 -2
-2 -6 -9 -11 -14 -10 -6 1 -7 -19 -2 -50 14 -98 32 -111 71 -49 17 28 23 51
22 95 0 31 2 57 5 57 3 0 25 -19 49 -41z"/>
<path d="M2377 5359 c6 -6 33 -21 59 -34 44 -21 46 -24 22 -24 -31 -1 -37 -15
-12 -25 21 -8 20 -8 37 8 12 12 21 9 63 -22 72 -54 116 -148 122 -259 l5 -83
-48 7 c-38 5 -47 3 -43 -8 3 -8 22 -15 46 -17 36 -3 42 -6 41 -25 -1 -39 -12
-57 -29 -47 -20 13 -50 13 -50 0 0 -6 12 -16 28 -22 15 -7 28 -13 30 -14 2 -1
0 -14 -4 -29 -6 -23 -8 -25 -16 -11 -13 23 -37 21 -31 -4 3 -11 11 -20 19 -20
11 0 11 -5 2 -25 -8 -19 -14 -22 -24 -14 -7 6 -19 7 -25 3 -9 -5 -7 -11 6 -21
18 -12 17 -15 -21 -54 -55 -57 -154 -114 -254 -144 -138 -42 -167 -59 -202
-115 -17 -27 -34 -47 -38 -45 -5 3 -6 -4 -3 -15 6 -22 18 -26 28 -10 23 38 51
-28 61 -143 4 -48 11 -87 15 -87 15 0 10 143 -6 198 -9 28 -22 55 -30 60 -13
7 -13 11 1 30 8 12 20 19 26 16 7 -4 8 -2 4 4 -10 17 31 39 109 58 151 36 302
127 366 220 123 179 108 465 -31 601 -24 24 -81 61 -126 83 -82 40 -119 51
-97 29z"/>
<path d="M2487 5254 c-3 -4 -2 -15 4 -25 12 -23 45 -25 53 -4 4 11 -2 15 -25
15 -18 0 -28 4 -24 10 7 11 2 13 -8 4z"/>
<path d="M2532 5168 c7 -19 38 -22 38 -4 0 10 -9 16 -21 16 -12 0 -19 -5 -17
-12z"/>
<path d="M2050 5097 c-74 -95 -122 -122 -208 -118 -14 1 -49 25 -86 61 -35 33
-66 60 -69 60 -18 0 -2 -27 48 -80 118 -123 226 -102 335 65 23 36 47 62 53
58 6 -3 7 -1 3 5 -13 21 -25 13 -76 -51z"/>
<path d="M2547 5123 c-15 -14 -5 -21 37 -24 39 -4 43 -2 35 14 -10 17 -59 24
-72 10z"/>
<path d="M2591 5058 c6 -11 21 -18 40 -18 43 0 32 23 -14 31 -33 5 -35 4 -26
-13z"/>
<path d="M2591 4996 c-9 -10 -6 -15 11 -20 35 -9 50 -7 46 6 -7 19 -45 28 -57
14z"/>
<path d="M1507 4604 c-4 -4 35 -38 86 -76 50 -38 92 -73 92 -78 0 -4 4 -12 9
-17 5 -5 6 -3 2 5 -11 19 -2 15 91 -38 84 -48 113 -59 113 -42 0 9 -179 129
-276 185 -34 19 -73 42 -86 51 -14 9 -28 13 -31 10z"/>
<path d="M3570 4519 c0 -5 5 -7 10 -4 6 3 10 8 10 11 0 2 -4 4 -10 4 -5 0 -10
-5 -10 -11z"/>
<path d="M8764 4898 c3 -728 6 -1409 6 -1514 l0 -191 106 37 c58 21 142 60
187 88 108 65 184 103 309 153 57 22 128 54 158 71 175 98 563 377 883 635
173 139 240 178 424 244 75 26 145 55 157 64 158 117 223 139 412 141 82 1
149 6 162 13 33 18 39 14 51 -36 14 -54 56 -125 98 -165 15 -14 52 -34 81 -44
46 -14 61 -15 110 -5 142 31 278 174 303 320 21 115 -19 210 -119 285 -60 45
-64 61 -30 139 40 92 23 173 -53 247 -48 47 -117 70 -205 70 -59 0 -81 -5
-133 -31 -41 -20 -73 -45 -91 -71 -34 -46 -36 -53 -45 -130 l-6 -58 -133 0
c-155 0 -180 9 -251 88 -71 78 -131 117 -318 204 -137 65 -205 90 -337 125
-280 74 -365 106 -512 194 -176 105 -496 229 -888 346 -102 30 -213 65 -248
79 -34 13 -67 24 -73 24 -9 0 -10 -353 -5 -1322z m286 1066 c106 -14 138 -25
415 -135 165 -66 306 -123 314 -128 19 -12 -18 -132 -71 -231 -39 -72 -153
-246 -167 -255 -11 -6 -140 191 -193 294 -27 52 -54 99 -61 103 -23 14 -46 8
-63 -17 -15 -23 -14 -28 35 -121 28 -53 48 -101 44 -107 -3 -5 -1 -7 5 -3 6 3
21 -11 33 -31 13 -21 51 -72 85 -114 l62 -77 -103 -128 c-57 -71 -108 -130
-112 -131 -10 -4 -169 157 -224 226 -30 38 -39 43 -62 37 -35 -8 -45 -47 -22
-84 10 -15 70 -79 135 -143 l118 -115 -65 -90 c-35 -49 -83 -111 -105 -137
l-41 -49 -54 54 -55 53 6 120 c3 66 5 369 6 673 0 444 3 552 13 552 7 0 64 -7
127 -16z m907 -534 c28 -41 65 -91 81 -110 l30 -35 -35 -70 c-45 -90 -191
-305 -207 -305 -11 0 -111 97 -188 182 l-70 78 65 89 c82 111 157 240 182 313
l19 56 36 -61 c20 -34 59 -96 87 -137z m83 138 l82 -52 -7 -60 c-3 -33 -9 -64
-12 -69 -3 -5 -24 20 -48 55 -50 75 -109 178 -102 178 3 0 42 -23 87 -52z
m280 -113 c303 -71 315 -74 438 -135 68 -34 126 -68 129 -76 8 -22 -23 -140
-58 -214 -35 -76 -120 -220 -130 -220 -13 0 -165 122 -282 227 -65 57 -153
145 -196 194 l-78 90 12 47 c8 26 16 64 20 85 4 24 11 36 18 34 7 -3 64 -17
127 -32z m1567 -161 c36 -27 67 -68 77 -101 9 -30 -8 -60 -64 -110 -26 -24
-50 -51 -53 -62 -3 -13 19 -42 78 -103 45 -46 92 -106 104 -132 42 -87 11
-179 -73 -217 -48 -22 -80 -23 -127 -8 -69 24 -119 92 -128 177 l-6 57 -58 -3
c-31 -1 -103 -11 -160 -22 -97 -19 -102 -19 -112 -3 -5 10 -27 35 -47 55 -43
42 -45 50 -21 69 22 19 53 88 53 122 0 32 -4 31 85 12 83 -17 170 -19 212 -4
23 8 35 21 48 54 21 57 21 59 -15 68 -28 7 -30 11 -30 52 0 111 143 170 237
99z m-1582 -255 c79 -69 194 -159 297 -229 l68 -48 -46 -61 c-25 -34 -50 -58
-56 -55 -7 4 -8 2 -4 -5 5 -7 -21 -46 -64 -99 -39 -48 -106 -131 -147 -184
-42 -54 -80 -95 -86 -91 -6 3 -7 1 -3 -5 4 -7 -7 -32 -25 -57 -32 -45 -50 -55
-30 -17 29 54 37 192 11 192 -4 0 -13 -29 -19 -65 -7 -36 -23 -96 -37 -133
-25 -66 -26 -68 -120 -130 -66 -44 -94 -58 -90 -45 12 41 10 153 -3 153 -5 0
-12 -19 -16 -42 -13 -85 -45 -173 -68 -189 -12 -8 -58 -41 -103 -72 l-81 -56
18 52 c10 29 18 71 19 95 0 39 7 52 67 122 37 43 71 76 75 74 5 -3 7 -1 6 4
-2 5 10 28 27 49 l29 40 70 -29 c38 -15 74 -27 79 -25 6 2 -18 21 -51 42 -34
22 -62 43 -62 47 0 4 27 44 60 90 33 46 76 113 95 151 20 37 39 67 41 67 3 0
53 -34 110 -75 57 -41 104 -71 104 -66 0 9 -123 132 -169 168 l-23 19 21 84
c32 126 26 186 -15 178 -16 -3 -20 -15 -25 -73 -3 -39 -11 -87 -18 -108 l-13
-38 -26 17 c-15 10 -75 55 -134 101 l-108 84 59 77 c73 97 153 219 171 261
l13 33 66 -71 c36 -38 98 -98 136 -132z m752 98 c54 -41 104 -81 112 -90 7 -9
22 -17 32 -17 18 0 49 -35 49 -56 0 -16 -109 -120 -122 -116 -5 1 -7 -2 -4 -7
9 -14 -32 -97 -65 -136 -17 -19 -53 -51 -80 -71 l-50 -36 -62 59 c-34 32 -77
70 -95 85 l-32 27 44 63 c74 106 156 288 156 348 0 11 4 20 9 20 5 0 54 -33
108 -73z m-1444 -151 c-4 -5 -1 -6 4 -3 11 7 158 -119 158 -135 0 -5 -42 -62
-94 -127 l-94 -118 -143 125 -143 125 32 38 c18 21 66 78 107 128 l75 90 52
-57 c28 -31 49 -61 46 -66z m299 -235 c51 -37 117 -83 145 -100 l53 -32 -34
-68 c-19 -37 -62 -109 -96 -159 l-61 -92 -28 19 c-15 11 -65 55 -112 98 -47
43 -104 95 -127 116 -38 33 -41 40 -30 56 16 22 192 230 195 231 2 0 45 -31
95 -69z m-658 17 c-4 -7 -3 -8 4 -4 11 6 223 -155 264 -201 17 -18 15 -22 -43
-103 -33 -47 -87 -118 -121 -159 l-60 -73 -134 133 c-74 74 -134 137 -134 142
0 17 83 106 93 100 6 -3 7 -1 3 5 -7 11 112 172 127 172 5 0 5 -5 1 -12z
m1638 -184 c-9 -6 -78 -35 -152 -65 -74 -30 -181 -76 -236 -104 l-101 -50 100
118 c86 101 102 116 116 105 14 -11 14 -11 3 4 -12 15 -7 25 38 82 l52 64 99
-71 c85 -61 96 -72 81 -83z m-1947 -35 l38 -51 -29 -23 c-16 -14 -32 -24 -36
-25 -12 0 -9 -20 3 -20 6 0 25 11 43 25 38 29 51 32 42 9 -3 -8 -2 -13 2 -10
4 2 63 -53 129 -123 115 -121 121 -129 105 -146 -16 -16 -15 -17 13 -11 28 6
41 -4 178 -129 81 -75 152 -135 158 -133 5 2 -55 71 -135 154 l-145 151 36 34
c35 34 173 202 204 249 l16 25 54 -52 c30 -28 66 -61 82 -73 15 -12 24 -26 21
-32 -4 -6 -2 -8 4 -4 6 3 44 -18 85 -47 l75 -54 -26 -34 c-14 -19 -78 -99
-142 -179 -64 -80 -151 -192 -193 -250 -42 -58 -88 -118 -102 -135 l-25 -30
19 45 c33 76 40 200 12 200 -5 0 -12 -21 -16 -47 -3 -27 -20 -90 -37 -142 -30
-90 -33 -94 -72 -111 -47 -20 -120 -35 -114 -23 56 112 62 132 66 205 3 51 1
78 -6 78 -11 0 -17 -14 -27 -70 -3 -19 -20 -77 -37 -127 -29 -88 -32 -93 -59
-93 -57 0 -60 6 -29 73 26 57 35 105 31 180 -2 40 -19 33 -26 -10 -9 -59 -65
-227 -79 -238 -7 -6 -25 -33 -39 -61 -33 -66 -74 -114 -97 -114 -16 0 -16 4
-4 58 11 45 14 174 15 610 0 303 1 552 3 552 1 0 19 -23 41 -51z m709 -702
l-27 -86 -66 -44 c-114 -76 -114 -71 1 77 62 79 114 143 116 141 1 -1 -10 -41
-24 -88z"/>
</g>
</svg>
